<svg xmlns="http://www.w3.org/2000/svg" viewBox="0 0 32 32" width="32" height="32">
  <rect width="32" height="32" rx="7" fill="#1a1a2e"/>
  <rect x="5" y="5" width="22" height="22" rx="4" fill="#16213e"/>
  <rect x="5" y="5" width="22" height="7" rx="4" fill="#e94560"/>
  <rect x="5" y="9" width="22" height="3" fill="#e94560"/>
  <rect x="9" y="3" width="2" height="5" rx="1" fill="#e94560"/>
  <rect x="21" y="3" width="2" height="5" rx="1" fill="#e94560"/>
  <rect x="8" y="16" width="3" height="1.5" rx="0.5" fill="#e94560"/>
  <rect x="8" y="19" width="3" height="1.5" rx="0.5" fill="#e94560"/>
  <rect x="13" y="16" width="3" height="1.5" rx="0.5" fill="#a8b2d8"/>
  <rect x="18" y="16" width="5" height="1.5" rx="0.5" fill="#a8b2d8"/>
  <rect x="13" y="19" width="5" height="1.5" rx="0.5" fill="#a8b2d8"/>
  <rect x="20" y="19" width="3" height="1.5" rx="0.5" fill="#a8b2d8"/>
  <circle cx="23.5" cy="13.5" r="2" fill="#e94560" opacity="0.9"/>
  <path d="M22.8 13.5 L23.5 12.8 L24.2 13.5 L23.5 14.2 Z" fill="white" opacity="0.8"/>
</svg>
